<svg xmlns="http://www.w3.org/2000/svg" width="1200" height="720" viewBox="0 0 1200 720" role="img" aria-labelledby="title desc">
  <title id="title">孩子画出自己的伙伴</title>
  <desc id="desc">一个孩子在纸上画伙伴，旁边的屏幕等待生成数字伙伴。</desc>
  <rect width="1200" height="720" fill="#F7F3E8"/>
  <rect x="80" y="70" width="1040" height="580" rx="34" fill="#FFFFFF" stroke="#222222" stroke-width="5"/>
  <circle cx="275" cy="220" r="62" fill="#F7C7A3" stroke="#222222" stroke-width="5"/>
  <path d="M217 194c26-61 105-59 125 0-27-15-86-18-125 0z" fill="#2D2D2D"/>
  <circle cx="252" cy="225" r="7" fill="#222222"/>
  <circle cx="298" cy="225" r="7" fill="#222222"/>
  <path d="M254 258c20 18 44 18 62 0" fill="none" stroke="#222222" stroke-width="5" stroke-linecap="round"/>
  <path d="M220 314c44-35 108-35 152 0l22 170H198z" fill="#79C6C0" stroke="#222222" stroke-width="5"/>
  <path d="M386 365l120 60" stroke="#222222" stroke-width="9" stroke-linecap="round"/>
  <path d="M500 424l30 13" stroke="#E95F4D" stroke-width="10" stroke-linecap="round"/>
  <rect x="520" y="300" width="260" height="210" rx="14" fill="#FFF7DA" stroke="#222222" stroke-width="5"/>
  <path d="M600 410c-25-42 4-86 49-76 44-11 74 34 49 76-18 31-80 31-98 0z" fill="#FFFFFF" stroke="#222222" stroke-width="5"/>
  <circle cx="630" cy="385" r="7" fill="#222222"/>
  <circle cx="670" cy="385" r="7" fill="#222222"/>
  <path d="M634 416c16 10 29 10 44 0" fill="none" stroke="#222222" stroke-width="4" stroke-linecap="round"/>
  <rect x="835" y="170" width="210" height="330" rx="26" fill="#D8E8FF" stroke="#222222" stroke-width="5"/>
  <rect x="865" y="210" width="150" height="210" rx="18" fill="#FFFFFF" stroke="#222222" stroke-width="4"/>
  <path d="M914 314c-20-30 2-64 31-54 29-10 51 24 31 54-15 22-47 22-62 0z" fill="#F4D35E" stroke="#222222" stroke-width="4"/>
  <circle cx="932" cy="296" r="5" fill="#222222"/>
  <circle cx="959" cy="296" r="5" fill="#222222"/>
  <path d="M928 331h35" stroke="#222222" stroke-width="4" stroke-linecap="round"/>
  <text x="600" y="590" text-anchor="middle" font-family="Microsoft YaHei, Arial, sans-serif" font-size="34" fill="#222222">伙伴不是系统发的，而是孩子先画出来的</text>
</svg>
