<svg xmlns="http://www.w3.org/2000/svg" width="1200" height="720" viewBox="0 0 1200 720" role="img" aria-labelledby="title desc">
  <title id="title">伙伴发生变化</title>
  <desc id="desc">孩子完成挑战后，伙伴获得新技能、道具和故事变化。</desc>
  <rect width="1200" height="720" fill="#FFF3F0"/>
  <rect x="95" y="85" width="1010" height="550" rx="34" fill="#FFFFFF" stroke="#222222" stroke-width="5"/>
  <path d="M500 330c-58-95 20-200 111-150 93-50 172 55 112 150-43 70-180 70-223 0z" fill="#F4D35E" stroke="#222222" stroke-width="7"/>
  <path d="M520 215l-68-83M700 215l74-83" stroke="#222222" stroke-width="8" stroke-linecap="round"/>
  <circle cx="575" cy="300" r="12" fill="#222222"/>
  <circle cx="650" cy="300" r="12" fill="#222222"/>
  <path d="M580 365c28 20 58 20 86 0" fill="none" stroke="#222222" stroke-width="7" stroke-linecap="round"/>
  <circle cx="612" cy="210" r="30" fill="#FFFFFF" stroke="#222222" stroke-width="5"/>
  <path d="M600 210l10 12 24-30" fill="none" stroke="#79C6C0" stroke-width="8" stroke-linecap="round" stroke-linejoin="round"/>
  <rect x="430" y="450" width="360" height="70" rx="35" fill="#79C6C0" stroke="#222222" stroke-width="5"/>
  <text x="610" y="497" text-anchor="middle" font-family="Microsoft YaHei, Arial, sans-serif" font-size="28" fill="#222222">解锁：回声耳朵</text>
  <circle cx="300" cy="260" r="48" fill="#D8E8FF" stroke="#222222" stroke-width="5"/>
  <path d="M276 260h48M300 236v48" stroke="#222222" stroke-width="7" stroke-linecap="round"/>
  <circle cx="910" cy="260" r="48" fill="#EAF6EA" stroke="#222222" stroke-width="5"/>
  <path d="M887 272c20-45 48-46 65 0" fill="none" stroke="#222222" stroke-width="7" stroke-linecap="round"/>
  <path d="M250 420h150M820 420h150" stroke="#222222" stroke-width="7" stroke-dasharray="16 18" stroke-linecap="round"/>
  <text x="600" y="600" text-anchor="middle" font-family="Microsoft YaHei, Arial, sans-serif" font-size="32" fill="#222222">孩子完成挑战后，看到的是故事变化，不是分数</text>
</svg>
